<mxfile host="app.diagrams.net" modified="2023-01-09T01:12:26.000Z" agent="5.0 (X11; Linux x86_64) AppleWebKit/537.36 (KHTML, like Gecko) Chrome/108.0.0.0 Safari/537.36" etag="gErG8AdVN1fFexDNCqO2" version="20.8.3" type="github">
  <diagram name="Page-1" id="74e2e168-ea6b-b213-b513-2b3c1d86103e">
    <mxGraphModel dx="1049" dy="598" grid="1" gridSize="10" guides="1" tooltips="1" connect="1" arrows="1" fold="1" page="1" pageScale="1" pageWidth="1100" pageHeight="850" background="none" math="0" shadow="0">
      <root>
        <mxCell id="0" />
        <mxCell id="1" parent="0" />
        <mxCell id="77e6c97f196da883-1" value="Pool" style="swimlane;html=1;childLayout=stackLayout;startSize=20;rounded=0;shadow=0;labelBackgroundColor=none;strokeWidth=1;fontFamily=Verdana;fontSize=8;align=center;" parent="1" vertex="1">
          <mxGeometry x="70" y="40" width="960" height="750" as="geometry" />
        </mxCell>
        <mxCell id="77e6c97f196da883-2" value="Lane 1" style="swimlane;html=1;startSize=20;" parent="77e6c97f196da883-1" vertex="1">
          <mxGeometry y="20" width="160" height="730" as="geometry" />
        </mxCell>
        <mxCell id="77e6c97f196da883-3" value="Lane 2" style="swimlane;html=1;startSize=20;" parent="77e6c97f196da883-1" vertex="1">
          <mxGeometry x="160" y="20" width="160" height="730" as="geometry" />
        </mxCell>
        <mxCell id="77e6c97f196da883-4" value="Lane 3" style="swimlane;html=1;startSize=20;" parent="77e6c97f196da883-1" vertex="1">
          <mxGeometry x="320" y="20" width="160" height="730" as="geometry" />
        </mxCell>
        <mxCell id="77e6c97f196da883-5" value="Lane 4" style="swimlane;html=1;startSize=20;" parent="77e6c97f196da883-1" vertex="1">
          <mxGeometry x="480" y="20" width="160" height="730" as="geometry" />
        </mxCell>
        <mxCell id="77e6c97f196da883-6" value="Lane 5" style="swimlane;html=1;startSize=20;" parent="77e6c97f196da883-1" vertex="1">
          <mxGeometry x="640" y="20" width="160" height="730" as="geometry" />
        </mxCell>
        <mxCell id="77e6c97f196da883-7" value="Lane 6" style="swimlane;html=1;startSize=20;" parent="77e6c97f196da883-1" vertex="1">
          <mxGeometry x="800" y="20" width="160" height="730" as="geometry" />
        </mxCell>
        <mxCell id="zra91NkldTe_OGP8ifQN-1" value="预约登记" style="rounded=1;whiteSpace=wrap;html=1;shadow=0;labelBackgroundColor=none;strokeWidth=1;fontFamily=Verdana;fontSize=10;align=center;" vertex="1" parent="1">
          <mxGeometry x="90" y="100" width="100" height="60" as="geometry" />
        </mxCell>
        <mxCell id="zra91NkldTe_OGP8ifQN-2" value="" style="edgeStyle=orthogonalEdgeStyle;rounded=0;orthogonalLoop=1;jettySize=auto;html=1;fontSize=10;" edge="1" parent="1" source="zra91NkldTe_OGP8ifQN-3" target="zra91NkldTe_OGP8ifQN-6">
          <mxGeometry relative="1" as="geometry" />
        </mxCell>
        <mxCell id="zra91NkldTe_OGP8ifQN-3" value="不存在提示，&lt;br&gt;存在则选择公司" style="rounded=1;whiteSpace=wrap;html=1;shadow=0;labelBackgroundColor=none;strokeWidth=1;fontFamily=Verdana;fontSize=10;align=center;" vertex="1" parent="1">
          <mxGeometry x="90" y="240" width="100" height="60" as="geometry" />
        </mxCell>
        <mxCell id="zra91NkldTe_OGP8ifQN-4" value="" style="edgeStyle=orthogonalEdgeStyle;rounded=0;orthogonalLoop=1;jettySize=auto;html=1;fontSize=10;" edge="1" parent="1" source="zra91NkldTe_OGP8ifQN-5" target="zra91NkldTe_OGP8ifQN-7">
          <mxGeometry relative="1" as="geometry" />
        </mxCell>
        <mxCell id="zra91NkldTe_OGP8ifQN-5" value="不存在提示，&lt;br&gt;存在回填被访人" style="rounded=1;whiteSpace=wrap;html=1;shadow=0;labelBackgroundColor=none;strokeWidth=1;fontFamily=Verdana;fontSize=10;align=center;" vertex="1" parent="1">
          <mxGeometry x="90" y="437" width="100" height="60" as="geometry" />
        </mxCell>
        <mxCell id="zra91NkldTe_OGP8ifQN-6" value="填写被访人" style="rounded=1;whiteSpace=wrap;html=1;shadow=0;labelBackgroundColor=none;strokeWidth=1;fontFamily=Verdana;fontSize=10;align=center;" vertex="1" parent="1">
          <mxGeometry x="90" y="337" width="100" height="60" as="geometry" />
        </mxCell>
        <mxCell id="zra91NkldTe_OGP8ifQN-7" value="添加时间区间" style="rounded=1;whiteSpace=wrap;html=1;shadow=0;labelBackgroundColor=none;strokeWidth=1;fontFamily=Verdana;fontSize=10;align=center;" vertex="1" parent="1">
          <mxGeometry x="90" y="530" width="100" height="60" as="geometry" />
        </mxCell>
        <mxCell id="zra91NkldTe_OGP8ifQN-8" value="存在交集提示，&lt;br&gt;不存在则继续" style="rounded=1;whiteSpace=wrap;html=1;shadow=0;labelBackgroundColor=none;strokeWidth=1;fontFamily=Verdana;fontSize=10;align=center;" vertex="1" parent="1">
          <mxGeometry x="90" y="610" width="100" height="60" as="geometry" />
        </mxCell>
        <mxCell id="zra91NkldTe_OGP8ifQN-9" style="edgeStyle=orthogonalEdgeStyle;rounded=1;html=1;labelBackgroundColor=none;startArrow=none;startFill=0;startSize=5;endArrow=classicThin;endFill=1;endSize=5;jettySize=auto;orthogonalLoop=1;strokeWidth=1;fontFamily=Verdana;fontSize=10;" edge="1" parent="1" source="zra91NkldTe_OGP8ifQN-1" target="zra91NkldTe_OGP8ifQN-13">
          <mxGeometry relative="1" as="geometry" />
        </mxCell>
        <mxCell id="zra91NkldTe_OGP8ifQN-10" style="edgeStyle=orthogonalEdgeStyle;rounded=1;html=1;labelBackgroundColor=none;startArrow=none;startFill=0;startSize=5;endArrow=classicThin;endFill=1;endSize=5;jettySize=auto;orthogonalLoop=1;strokeWidth=1;fontFamily=Verdana;fontSize=10;exitX=1;exitY=0.5;exitDx=0;exitDy=0;exitPerimeter=0;" edge="1" parent="1" source="zra91NkldTe_OGP8ifQN-6" target="zra91NkldTe_OGP8ifQN-14">
          <mxGeometry relative="1" as="geometry">
            <mxPoint x="120" y="317" as="sourcePoint" />
          </mxGeometry>
        </mxCell>
        <mxCell id="zra91NkldTe_OGP8ifQN-11" value="" style="edgeStyle=orthogonalEdgeStyle;rounded=0;orthogonalLoop=1;jettySize=auto;html=1;fontSize=10;" edge="1" parent="1" source="zra91NkldTe_OGP8ifQN-15" target="zra91NkldTe_OGP8ifQN-5">
          <mxGeometry relative="1" as="geometry" />
        </mxCell>
        <mxCell id="zra91NkldTe_OGP8ifQN-12" value="" style="edgeStyle=orthogonalEdgeStyle;rounded=0;orthogonalLoop=1;jettySize=auto;html=1;fontSize=10;" edge="1" parent="1" source="zra91NkldTe_OGP8ifQN-13" target="zra91NkldTe_OGP8ifQN-17">
          <mxGeometry relative="1" as="geometry" />
        </mxCell>
        <mxCell id="zra91NkldTe_OGP8ifQN-13" value="查询公司" style="rounded=1;whiteSpace=wrap;html=1;shadow=0;labelBackgroundColor=none;strokeWidth=1;fontFamily=Verdana;fontSize=10;align=center;" vertex="1" parent="1">
          <mxGeometry x="260" y="100" width="100" height="60" as="geometry" />
        </mxCell>
        <mxCell id="zra91NkldTe_OGP8ifQN-14" value="查询公司员工" style="rounded=1;whiteSpace=wrap;html=1;shadow=0;labelBackgroundColor=none;strokeWidth=1;fontFamily=Verdana;fontSize=10;align=center;" vertex="1" parent="1">
          <mxGeometry x="260" y="337" width="100" height="60" as="geometry" />
        </mxCell>
        <mxCell id="zra91NkldTe_OGP8ifQN-15" value="是否存在" style="rhombus;whiteSpace=wrap;html=1;rounded=0;shadow=0;labelBackgroundColor=none;strokeWidth=1;fontFamily=Verdana;fontSize=10;align=center;" vertex="1" parent="1">
          <mxGeometry x="270" y="437" width="80" height="60" as="geometry" />
        </mxCell>
        <mxCell id="zra91NkldTe_OGP8ifQN-16" style="edgeStyle=orthogonalEdgeStyle;rounded=1;html=1;labelBackgroundColor=none;startArrow=none;startFill=0;startSize=5;endArrow=classicThin;endFill=1;endSize=5;jettySize=auto;orthogonalLoop=1;strokeWidth=1;fontFamily=Verdana;fontSize=10;exitX=0.5;exitY=1;exitDx=0;exitDy=0;" edge="1" parent="1" source="zra91NkldTe_OGP8ifQN-14" target="zra91NkldTe_OGP8ifQN-15">
          <mxGeometry relative="1" as="geometry" />
        </mxCell>
        <mxCell id="zra91NkldTe_OGP8ifQN-17" value="是否存在" style="rhombus;whiteSpace=wrap;html=1;rounded=0;shadow=0;labelBackgroundColor=none;strokeWidth=1;fontFamily=Verdana;fontSize=10;align=center;" vertex="1" parent="1">
          <mxGeometry x="270" y="190" width="80" height="60" as="geometry" />
        </mxCell>
        <mxCell id="zra91NkldTe_OGP8ifQN-18" value="" style="edgeStyle=orthogonalEdgeStyle;rounded=0;orthogonalLoop=1;jettySize=auto;html=1;fontSize=10;" edge="1" parent="1" source="zra91NkldTe_OGP8ifQN-19" target="zra91NkldTe_OGP8ifQN-20">
          <mxGeometry relative="1" as="geometry" />
        </mxCell>
        <mxCell id="zra91NkldTe_OGP8ifQN-19" value="筛查时间记录" style="rounded=1;whiteSpace=wrap;html=1;shadow=0;labelBackgroundColor=none;strokeWidth=1;fontFamily=Verdana;fontSize=10;align=center;" vertex="1" parent="1">
          <mxGeometry x="260" y="530" width="100" height="60" as="geometry" />
        </mxCell>
        <mxCell id="zra91NkldTe_OGP8ifQN-20" value="是否存在交集" style="rhombus;whiteSpace=wrap;html=1;rounded=0;shadow=0;labelBackgroundColor=none;strokeWidth=1;fontFamily=Verdana;fontSize=10;align=center;" vertex="1" parent="1">
          <mxGeometry x="270" y="610" width="80" height="60" as="geometry" />
        </mxCell>
        <mxCell id="zra91NkldTe_OGP8ifQN-21" style="edgeStyle=orthogonalEdgeStyle;rounded=0;orthogonalLoop=1;jettySize=auto;html=1;entryX=0.5;entryY=0;entryDx=0;entryDy=0;fontSize=10;" edge="1" parent="1" source="zra91NkldTe_OGP8ifQN-17" target="zra91NkldTe_OGP8ifQN-3">
          <mxGeometry relative="1" as="geometry" />
        </mxCell>
        <mxCell id="zra91NkldTe_OGP8ifQN-22" value="" style="edgeStyle=orthogonalEdgeStyle;rounded=0;orthogonalLoop=1;jettySize=auto;html=1;fontSize=10;" edge="1" parent="1" source="zra91NkldTe_OGP8ifQN-7" target="zra91NkldTe_OGP8ifQN-19">
          <mxGeometry relative="1" as="geometry" />
        </mxCell>
        <mxCell id="zra91NkldTe_OGP8ifQN-23" value="" style="edgeStyle=orthogonalEdgeStyle;rounded=0;orthogonalLoop=1;jettySize=auto;html=1;fontSize=10;" edge="1" parent="1" source="zra91NkldTe_OGP8ifQN-20" target="zra91NkldTe_OGP8ifQN-8">
          <mxGeometry relative="1" as="geometry" />
        </mxCell>
      </root>
    </mxGraphModel>
  </diagram>
</mxfile>
